<svg id="_ionicons_svg_logo-codepen" xmlns="http://www.w3.org/2000/svg" viewBox="0 0 32.958 32.958">
  <defs>
    <style>
      .cls-1 {
        fill: #292929;
      }
    </style>
  </defs>
  <path id="Path_1" data-name="Path 1" class="cls-1" d="M148.387,163.646c-1.129-.763-2.266-1.516-3.395-2.279a.3.3,0,0,0-.405,0l-2.865,1.928c2.3,1.531,6.868,4.583,6.868,4.583v-3.964C148.59,163.82,148.476,163.706,148.387,163.646Zm-3.4-4.663q1.708-1.123,3.4-2.274a.557.557,0,0,0,.206-.393V152.5s-4.572,3.031-6.873,4.565c1.01.675,1.966,1.32,2.932,1.949A.387.387,0,0,0,144.986,158.983Zm5.509-2.308q1.748,1.184,3.51,2.345a.317.317,0,0,0,.283,0l2.93-1.951-6.858-4.585v3.932A.356.356,0,0,0,150.5,156.675Zm-.864,1.549a.39.39,0,0,0-.35.012c-.355.218-.7.457-1.044.689l-1.869,1.255,2.863,1.906a.456.456,0,0,0,.461.008l2.875-1.916S150.056,158.506,149.631,158.224Zm-8.631.5v2.919l2.183-1.462Z" transform="translate(-132.995 -143.634)"/>
  <path id="Path_2" data-name="Path 2" class="cls-1" d="M48.479,32A16.479,16.479,0,1,0,64.958,48.479,16.479,16.479,0,0,0,48.479,32ZM58.7,51.5a1.094,1.094,0,0,1-.553.963q-4.54,3.013-9.069,6.046a1.013,1.013,0,0,1-1.25-.01q-4.5-3.014-9.021-6.009a1.118,1.118,0,0,1-.559-1.01V45.611a1.121,1.121,0,0,1,.561-1.009c3.009-2,6.028-4,9.028-6.009a1.009,1.009,0,0,1,1.246-.007q4.528,3.032,9.068,6.047a1.061,1.061,0,0,1,.548.931Z" transform="translate(-32 -32)"/>
  <path id="Path_3" data-name="Path 3" class="cls-1" d="M271.555,239.726q-1.664,1.13-3.345,2.235a.453.453,0,0,0-.211.456V246.2l6.857-4.57-2.839-1.907A.346.346,0,0,0,271.555,239.726Zm3.962.254v-2.92l-2.181,1.465Z" transform="translate(-250.647 -221.985)"/>
</svg>
