<svg xmlns="http://www.w3.org/2000/svg" viewBox="0 0 32.958 32.958">
  <defs>
    <style>
      .cls-1 {
        fill: #292929;
      }
    </style>
  </defs>
  <path id="_ionicons_svg_logo-github" class="cls-1" d="M48.479,32A16.7,16.7,0,0,0,32,48.9a16.866,16.866,0,0,0,11.27,16.03,1.292,1.292,0,0,0,.28.029.8.8,0,0,0,.846-.839c0-.4-.015-1.464-.022-2.876a7.533,7.533,0,0,1-1.663.2,3.828,3.828,0,0,1-3.892-2.464A4.463,4.463,0,0,0,36.988,56.5c-1.435-1.008-.007-1.037.1-1.037H37.1a3.543,3.543,0,0,1,2.523,1.751,3.235,3.235,0,0,0,2.913,1.847,4.631,4.631,0,0,0,1.883-.441,3.65,3.65,0,0,1,1.045-2.258c-3.656-.427-7.5-1.876-7.5-8.35a6.614,6.614,0,0,1,1.692-4.532,6.22,6.22,0,0,1,.162-4.473,1.371,1.371,0,0,1,.368-.037c.6,0,1.942.228,4.164,1.773a15.318,15.318,0,0,1,8.254,0c2.222-1.545,3.568-1.773,4.164-1.773a1.371,1.371,0,0,1,.368.037,6.22,6.22,0,0,1,.162,4.473,6.641,6.641,0,0,1,1.692,4.532c0,6.489-3.855,7.916-7.526,8.335a4.1,4.1,0,0,1,1.118,3.127c0,2.258-.022,4.083-.022,4.635a.793.793,0,0,0,.839.846,1.424,1.424,0,0,0,.294-.029A16.959,16.959,0,0,0,48.479,32Z" transform="translate(-32 -32)"/>
</svg>
