<svg xmlns="http://www.w3.org/2000/svg" viewBox="0 0 27.74 27.739">
  <defs>
    <style>
      .cls-1 {
        fill: #868686;
      }
    </style>
  </defs>
  <path id="_ionicons_svg_ios-paper-plane" class="cls-1" d="M74.964,48.081,48.3,62.505a.557.557,0,0,0,.04.994l4.548,1.714a1.076,1.076,0,0,1,.6.56l3.534,7.275c.067.32.66.407.667.08l-.54-6.015a2.143,2.143,0,0,1,.487-1.214L71.463,52.356a.334.334,0,0,1,.3-.087.316.316,0,0,1,.173.507L60.02,67.353a2.665,2.665,0,0,0-.467,1.2l-.714,5.195c.06.453.413.627.7.22l2.567-3.014a.537.537,0,0,1,.754-.127l6.615,4.821a.533.533,0,0,0,.84-.327l5.428-26.641A.541.541,0,0,0,74.964,48.081Z" transform="translate(-48.017 -48.015)"/>
</svg>
