<svg id="twitter-logo-button" xmlns="http://www.w3.org/2000/svg" viewBox="0 0 49.55 49.55">
  <defs>
    <style>
      .cls-1 {
        fill: #292929;
      }
    </style>
  </defs>
  <g id="Group_1" data-name="Group 1">
    <path id="Path_4" data-name="Path 4" class="cls-1" d="M24.775,0A24.775,24.775,0,1,0,49.55,24.775,24.8,24.8,0,0,0,24.775,0ZM35.827,19.1c.011.245.017.493.017.74,0,7.535-5.734,16.222-16.226,16.222a16.129,16.129,0,0,1-8.741-2.56,11.514,11.514,0,0,0,8.443-2.361,5.708,5.708,0,0,1-5.327-3.961,5.724,5.724,0,0,0,2.575-.1A5.7,5.7,0,0,1,11.994,21.5c0-.024,0-.049,0-.072a5.679,5.679,0,0,0,2.582.713,5.711,5.711,0,0,1-1.764-7.613,16.192,16.192,0,0,0,11.753,5.96,5.706,5.706,0,0,1,9.717-5.2A11.382,11.382,0,0,0,37.9,13.9a5.728,5.728,0,0,1-2.511,3.156,11.337,11.337,0,0,0,3.275-.9A11.47,11.47,0,0,1,35.827,19.1Z"/>
  </g>
</svg>
